<svg xmlns="http://www.w3.org/2000/svg" version="1.1" xmlns:xlink="http://www.w3.org/1999/xlink" xmlns:svgjs="http://svgjs.dev/svgjs" viewBox="0 0 2400 800"><defs><linearGradient x1="50%" y1="0%" x2="50%" y2="100%" id="sssurf-grad"><stop stop-color="hsl(37, 99%, 67%)" stop-opacity="1" offset="0%"></stop><stop stop-color="hsl(316, 73%, 52%)" stop-opacity="1" offset="100%"></stop></linearGradient></defs><g fill="url(#sssurf-grad)" transform="matrix(1,0,0,1,7.6488037109375,288.51422023773193)"><path d="M-10,10C54.58333333333333,16.666666666666664,172.91666666666666,54.5,300,42C427.08333333333337,29.5,475,-46.458333333333336,600,-50C725,-53.541666666666664,775,26.25,900,25C1025,23.75,1075,-67.66666666666667,1200,-56C1325,-44.33333333333333,1375,74.75,1500,81C1625,87.25,1675,-17.041666666666664,1800,-26C1925,-34.958333333333336,1975,37.375,2100,38C2225,38.625,2285.4166666666665,-98.41666666666667,2400,-23C2514.5833333333335,52.41666666666667,3254.1666666666665,207.70833333333331,2650,400C2045.8333333333335,592.2916666666667,156.25,795.8333333333334,-500,900" transform="matrix(1,0,0,1,0,45)" opacity="0.05"></path><path d="M-10,10C54.58333333333333,16.666666666666664,172.91666666666666,54.5,300,42C427.08333333333337,29.5,475,-46.458333333333336,600,-50C725,-53.541666666666664,775,26.25,900,25C1025,23.75,1075,-67.66666666666667,1200,-56C1325,-44.33333333333333,1375,74.75,1500,81C1625,87.25,1675,-17.041666666666664,1800,-26C1925,-34.958333333333336,1975,37.375,2100,38C2225,38.625,2285.4166666666665,-98.41666666666667,2400,-23C2514.5833333333335,52.41666666666667,3254.1666666666665,207.70833333333331,2650,400C2045.8333333333335,592.2916666666667,156.25,795.8333333333334,-500,900" transform="matrix(1,0,0,1,0,90)" opacity="0.53"></path><path d="M-10,10C54.58333333333333,16.666666666666664,172.91666666666666,54.5,300,42C427.08333333333337,29.5,475,-46.458333333333336,600,-50C725,-53.541666666666664,775,26.25,900,25C1025,23.75,1075,-67.66666666666667,1200,-56C1325,-44.33333333333333,1375,74.75,1500,81C1625,87.25,1675,-17.041666666666664,1800,-26C1925,-34.958333333333336,1975,37.375,2100,38C2225,38.625,2285.4166666666665,-98.41666666666667,2400,-23C2514.5833333333335,52.41666666666667,3254.1666666666665,207.70833333333331,2650,400C2045.8333333333335,592.2916666666667,156.25,795.8333333333334,-500,900" transform="matrix(1,0,0,1,0,135)" opacity="1.00"></path></g></svg>